<?xml version="1.0" encoding="utf-8"?>
<!-- Generator: Adobe Illustrator 16.0.0, SVG Export Plug-In . SVG Version: 6.00 Build 0)  -->
<!DOCTYPE svg PUBLIC "-//W3C//DTD SVG 1.1//EN" "http://www.w3.org/Graphics/SVG/1.1/DTD/svg11.dtd">
<svg version="1.1" xmlns="http://www.w3.org/2000/svg" xmlns:xlink="http://www.w3.org/1999/xlink" x="0px" y="0px"
	 width="2599.094px" height="1467.206px" viewBox="14.096 370.957 2599.094 1467.206"
	 enable-background="new 14.096 370.957 2599.094 1467.206" xml:space="preserve">
<g id="Layer_2">
	<title>cover-pic</title>
	<polygon fill="#F6F3EF" points="930.792,370.957 533.06,625.668 306.948,370.957 	"/>
	<polyline fill="#D2B290" points="197.981,606.6 211.602,903.545 14.096,1083.333 14.096,755.071 86.287,606.6 	"/>
	<polyline fill="#74522F" points="1024.872,1441.579 533.06,1760.384 197.981,1441.579 14.096,1701.203 14.096,1083.333 	"/>
	<path d="M2160.774,1718.5"/>
	<polyline fill="#AB714B" points="1129.31,1629.855 1789.478,1675.707 1246.981,1842.033 	"/>
	<polyline fill="#B6754F" points="533.06,625.668 211.602,903.545 197.981,606.6 	"/>
	<polyline fill="#B2764C" points="647.229,1148.214 197.981,1441.579 14.096,1083.333 211.602,903.545 	"/>
	<polyline fill="#C0825E" points="1789.478,1675.707 1938.031,1842.033 1246.981,1842.033 	"/>
	<polyline fill="#EEE6DD" points="533.06,625.668 86.287,606.6 197.981,370.957 306.948,370.957 	"/>
	<polyline fill="#664423" points="197.981,1441.579 618.872,1842.033 14.096,1842.033 14.096,1701.203 	"/>
	<polyline fill="#C4885D" points="1024.872,1441.579 1246.981,1842.033 618.872,1842.033 533.06,1760.384 	"/>
	<polyline fill="#DCCCB9" points="197.981,370.957 14.096,755.071 14.096,370.957 	"/>
	<path d="M211.602,903.545"/>
	<polyline fill="#C98861" points="533.06,625.668 647.229,1148.214 211.602,903.545 	"/>
	<polyline fill="#C18562" points="647.229,1148.214 1024.872,1441.579 197.981,1441.579 	"/>
	<polyline fill="#D6C0A7" points="1789.478,1675.707 2193.137,1629.855 1938.031,1842.033 	"/>
	
		<image overflow="visible" width="2181" height="1467" xlink:href="1358C305.jpg"  transform="matrix(0.4999 0 0 0.4999 3823.1506 536.8413)">
	</image>
</g>
<g id="圖層_2">
	
		<image overflow="visible" width="1880" height="902" xlink:href="1358C307.jpg"  transform="matrix(0.3785 0 0 0.3785 143.0759 -425.4146)">
	</image>
</g>
</svg>
