<svg id="Layer_2" data-name="Layer 2" xmlns="http://www.w3.org/2000/svg" viewBox="0 0 2160 1080">
	<defs>
		<style>.cls-1{fill:#daecf5;}.cls-2{fill:#7dbdd1;}.cls-3{fill:#2a6189;}.cls-4{fill:#fff;stroke:#231f20;stroke-miterlimit:10;}.cls-5{fill:#428dab;}.cls-6{fill:#4194b5;}.cls-7{fill:#3e8ab0;}.cls-8{fill:#53a8bd;}.cls-9{fill:#bfe3ee;}.cls-10{fill:#275d87;}.cls-11{fill:#50a2c1;}.cls-12{fill:#9fcedc;}.cls-13{fill:#52aac5;}.cls-14{fill:#57a9bf;}.cls-15{fill:#91c4d6;}</style></defs><title>cover-pic</title><polygon class="cls-1" points="673 0 381 187 215 0 673 0"/><polyline class="cls-2" points="135 173 145 391 0 523 0 282 53 173"/><polyline class="cls-3" points="742.07 786 381 1020.06 135 786 0 976.61 0 523"/><path class="cls-4" d="M1576,989.31" transform="translate(0 0)"/><polyline class="cls-5" points="818.74 924.23 1303.41 957.89 905.13 1080"/><polyline class="cls-6" points="381 187 145 391 135 173"/><polyline class="cls-7" points="464.82 570.63 135 786 0 523 145 391"/><polyline class="cls-8" points="1303.41 957.89 1412.47 1080 905.13 1080"/><polyline class="cls-9" points="381 187 53 173 135 0 215 0"/><polyline class="cls-10" points="135 786 444 1080 0 1080 0 976.61"/><polyline class="cls-11" points="742.07 786 905.13 1080 444 1080 381 1020.06"/><polyline class="cls-12" points="135 0 0 282 0 0"/><path class="cls-4" d="M145,391" transform="translate(0 0)"/><polyline class="cls-13" points="381 187 464.82 570.63 145 391"/><polyline class="cls-14" points="464.82 570.63 742.07 786 135 786"/><polyline class="cls-15" points="1303.41 957.89 1599.76 924.23 1412.47 1080"/></svg>