<?xml version="1.0" encoding="utf-8"?>
<!-- Generator: Adobe Illustrator 19.2.0, SVG Export Plug-In . SVG Version: 6.00 Build 0)  -->
<svg version="1.1" id="Layer_1" xmlns="http://www.w3.org/2000/svg" xmlns:xlink="http://www.w3.org/1999/xlink" x="0px" y="0px"
	 viewBox="0 0 900 900" style="enable-background:new 0 0 900 900;" xml:space="preserve">
<style type="text/css">
	.st0{fill:#F0ECD1;}
	.st1{fill:#EFECAD;}
	.st2{fill:none;}
	.st3{font-family:'STHeitiTC-Light';}
	.st4{font-size:11.7089px;}
	.st5{font-size:13.1725px;}
	.st6{font-size:17.5634px;}
	.st7{fill:#FFFFFF;}
	.st8{fill:#A4C385;}
	.st9{fill:#A4C385;stroke:#E36F72;stroke-width:2;stroke-miterlimit:10;}
	.st10{fill:#E36F72;}
	.st11{fill:#64B5D1;}
	.st12{fill:#BCA981;}
	.st13{font-size:19.027px;}
</style>
<rect x="0.2" y="3.8" class="st0" width="899.1" height="896.2"/>
<path class="st1" d="M816.3,425c-3.2-14.8-47.2-76.7-58.7-81.8c-10.3-4.5-41.5-38.9-48.4-46.5c-0.3-0.2-0.5-0.5-0.7-0.8
	c0,0,0,0-0.1-0.1c-0.3-0.1-0.6-0.3-0.8-0.5c-0.3-0.1-0.6-0.2-0.8-0.4c-17.5-18.4-12.5-9.3-13.4-11.8c-0.2-0.7-0.2-1.5,0-2.2
	c0-0.2,0.1-0.5,0.1-0.7c-0.6-0.4-0.9-1-1.2-1.6c-0.4,0.1-0.8,0.2-1.2,0.2c-0.5,0-1-0.1-1.4-0.3c-0.4,0.2-0.9,0.3-1.4,0.3
	c-0.6,0-1.1-0.1-1.5-0.3c-14.5,0.3-49.7-1.6-53-1.8c-4-0.3-22.5-7.7-22.5-7.7s-32.7-12.6-35.7-13.6c-3.1-0.9-14.2,1.5-16.4,3.1
	c-2.3,1.5-38.7,37-41.5,38.8c-2.8,1.8-21,7.1-21,7.1s-8.3-2.8-7.1-5.2c1.2-2.5,1.5-9.9,1.5-9.9c8.9-25.9,28.8-32.9,23.7-40.8
	c-5.1-8-35.5-16.8-35.5-16.8c-20.7,0.3-19.2-12.1-19.2-12.1s0,0,0,0c-0.1-0.8-0.1-1.6,0.2-2.4c-0.8-2.8-3.1-8.8-9-21.3
	c-11.1-23.3-28-46.1-31.8-51.2c-0.6-0.1-1.2-0.3-1.7-0.5c-0.2-0.1-0.3-0.2-0.5-0.2c-8.4,2-18.7,0.9-18.7,0.9
	c-16.9-14-31.9-15.9-31.9-15.9c-51.5-1.5-158.6,78.6-158.6,78.6c-51.8,24.7-76.8,88.2-88.8,97.3c-4.1,3.1-30.2,23.1-33.4,25.9
	c-2.2,1.9-26.9,14.2-43,22.3c-0.3,0.4-0.6,0.8-1.1,1.1c-12,7.9-24.7,14.8-37.3,21.9v158.8c0.1,0.1,0.1,0.2,0.2,0.3
	c0.1,0.1,0.3,0.3,0.4,0.4c0.1,0.1,0.3,0.2,0.4,0.3c16.4,4.6,33.6,64.5,35.4,68.8c1.6,3.8-5.4,31.8-5.3,38.1c0.2,0.3,0.3,0.7,0.4,1
	c0.1,0.1,0.2,0.2,0.3,0.4c4.2,1,37.6,18.4,70.6,59.7c33.9,42.5,57.2,37.9,57.2,37.9s110.5-4.6,125.6-4.3
	c15.1,0.3,77.4,47.2,77.4,47.2c19.7,18.5,43.5,29,47.8,30.5c4,1.4,80.7,20.9,90.8,23.5c0.3-0.5,0.7-0.9,1.2-1.2
	c2-19,7.3-27.7,36.8-58.1c26.1-26.9,88.3-14.5,105.1-10.5c0.4-0.1,0.8-0.2,1.2-0.2c0.1,0,0.1,0,0.2,0c0.6-0.3,1.3-0.5,2.1-0.5
	c0.3,0,0.6,0,0.8,0.1c0.1-0.1,0.2-0.2,0.3-0.3c29.4-166.1,125.4-214.5,127.9-224.3C783.7,533.6,819.6,439.8,816.3,425z"/>
<rect x="561.4" y="404.2" class="st2" width="60.6" height="36.9"/>
<text transform="matrix(1 0 0 1 561.3818 413.5693)" class="st3 st4">行政大樓</text>
<rect x="528.1" y="429.7" class="st2" width="114.3" height="32.1"/>
<text transform="matrix(1 0 0 1 528.0752 440.2139)" class="st3 st5">人社一館</text>
<rect x="572.8" y="485.1" class="st2" width="94.7" height="25.5"/>
<text transform="matrix(1 0 0 1 572.8271 495.5869)" class="st3 st5">第一餐廳／OK</text>
<rect x="661.7" y="417.1" class="st2" width="114.3" height="32.1"/>
<text transform="matrix(1 0 0 1 661.6582 426.4307)" class="st3 st4">人社二館</text>
<rect x="148.5" y="456.1" class="st2" width="128.1" height="40"/>
<text transform="matrix(1 0 0 1 148.4893 465.3721)" class="st3 st4">籃／網／排球場</text>
<rect x="189.7" y="333.1" class="st2" width="45.6" height="23.2"/>
<text transform="matrix(1 0 0 1 189.7192 342.4141)" class="st3 st4">田徑場</text>
<rect x="272.3" y="315.2" class="st2" width="73.7" height="34.4"/>
<text transform="matrix(1 0 0 1 272.2495 324.5117)" class="st3 st4">體育館</text>
<rect x="280.2" y="393" class="st2" width="135.3" height="19.2"/>
<text transform="matrix(1 0 0 1 280.2012 402.3174)" class="st3 st4">基礎科學教學研究大樓</text>
<rect x="423.5" y="331.5" class="st2" width="52.5" height="17.9"/>
<text transform="matrix(1 0 0 1 423.4551 340.8467)" class="st3 st4">工程二館</text>
<rect x="472.1" y="325.5" class="st2" width="49.2" height="22.7"/>
<text transform="matrix(1 0 0 1 472.0762 334.833)" class="st3 st4">工程一館</text>
<rect x="398.1" y="265.9" class="st2" width="81.2" height="28.7"/>
<text transform="matrix(1 0 0 1 398.0527 275.1904)"><tspan x="0" y="0" class="st3 st4">第二餐廳</tspan><tspan x="0" y="14.1" class="st3 st4">小七</tspan></text>
<rect x="355.6" y="219.4" class="st2" width="71.4" height="24.9"/>
<text transform="matrix(1 0 0 1 355.5898 228.7622)" class="st3 st4">九、十舍</text>
<rect x="446.3" y="219.5" class="st2" width="75.7" height="21.1"/>
<text transform="matrix(1 0 0 1 446.3369 228.7861)" class="st3 st4">十一、研一舍</text>
<text transform="matrix(1 0 0 1 286.2324 202.2979)" class="st3 st4">環工館</text>
<rect x="496.7" y="248.9" class="st2" width="59" height="24.6"/>
<text transform="matrix(1 0 0 1 496.6953 262.8369)" class="st3 st6">竹軒</text>
<g>
	<g>
		<path class="st7" d="M123.9,319.5c4.6,5.4,7.9,14.7,9.6,22.1c2.1,9.3,2.4,19,1.6,28.5c-0.8,8.6-2.1,17.2-1.1,25.9
			c1.2,10.2,6.2,17.9,16.5,20.4c8.4,2,17.5,1.4,26.1,1.4c47.7,0,95.5,0,143.2,0c5.1,0,10.3-0.4,15.3,0c0.9,0.1-0.8-0.2-0.2,0
			c0.7,0.1,1.3,0.4,2,0.5c3,0.8,6,1.6,9,2.3c23.6,6,47.5,11.6,71.6,15.2c10.4,1.6,21.2,3.2,31.8,2.4c7.4-0.6,12.8-4.1,19.3-7.5
			c26.5-13.8,52.8-27.9,76.8-45.7c13.9-10.3,27.2-21.6,38.4-34.9c5.3-6.3,8.4-11.9,12-19.1c9.6-19.6,19.2-39.3,28.8-58.9
			c0.8-1.6,1.5-3.1,2.3-4.7c1.4-2.9-2.9-5.4-4.3-2.5c-7.9,16.1-15.8,32.2-23.6,48.4c-3.8,7.8-7.7,15.7-11.5,23.5
			c-1.8,3.7-4.5,6.7-7.1,9.8c-5.6,6.6-11.8,12.8-18.3,18.6c-24.3,21.7-52.6,38.4-81.3,53.5c-8.1,4.3-16.2,9.1-24.5,13
			c-6.9,3.2-16.6,1.7-23.9,1c-25-2.4-49.8-8.3-74.2-14.2c-9.6-2.3-18.8-5.8-28.7-5.8c-45.8,0-91.6,0-137.4,0c-7.9,0-15.8,0-23.8,0
			c-8.7,0-21.4,0.8-26.7-7.7c-3.2-5.1-3.3-11.8-3.2-17.5c0.2-9.7,2.1-19.2,1.9-28.9c-0.3-13-3-26.4-9.7-37.7c-1-1.7-2.1-3.4-3.4-4.9
			C125.3,313.5,121.8,317.1,123.9,319.5L123.9,319.5z"/>
	</g>
</g>
<g>
	<g>
		<path class="st7" d="M591.5,331.8c-13.2,0.9-26.8-0.5-39.7-2.9c-27.2-5.1-53.4-16.4-73-36.5c-10.8-11.1-21.1-22.8-32.8-33
			c-6.8-6-14.4-11.5-23.2-14.1c-9.3-2.7-19.3-2.2-28.8-1.1c-12.4,1.4-24.5,3.9-36.6,7c-24.4,6.2-50.6,3.9-75.5,1.5
			c-6.5-0.6-13.5,0.2-19.4,3.2c-8.5,4.3-11.9,12.9-12.1,22c-0.3,20.7,0,41.5,0,62.2c0,39.8,0,79.5,0,119.3c0,27.5,0,55.1,0,82.6
			c0,7.6-0.3,15.2-0.3,22.8c-0.1,10.7,0,21.4,0.7,32.1c0.4,6.3,0.9,12.6,3.5,18.4c4.6,10.6,8.6,22.8,13.8,33.6
			c8.9,18.4,20.1,35.9,34.6,50.3c17,16.9,38.5,28.9,62.2,33c9.6,1.7,20.2,0.1,29.9-0.1c35.8-0.8,71.7-1.6,107.5-2.3
			c2.5-0.1,5.1-0.1,7.6-0.2c-0.8-1.1-1.6-2.1-2.4-3.2c-2.9,12.7,7.3,22.4,19,24.8c17.7,3.6,38.1-1.4,54.7-7.2
			c16.1-5.6,31.2-14.4,42.5-27.3c12.1-13.9,19.5-32.7,21.7-51c1.3-10.9,1-22.1,1-33.1c0-14.7-0.3-29.3-0.6-44
			c-0.1-6-0.3-11.9-0.5-17.9c-0.1-2.9,0.4-6.5-0.3-9.3c-0.3-1.1,0.2-0.9-0.3,0.3c0.3-0.7,0.6-1.3,0.9-2c1.4-3,2.9-6.1,4.4-9.1
			c13.2-27.3,26.7-54.5,41-81.2c7.9-14.8,15.9-29.5,24.6-43.8c3.4-5.6,7.4-10.9,10.6-16.6c0.6-1.1,0.9-1.8,1.2-3
			c3.2-11.4,4.5-23.6,4.3-35.4c-0.3-18.9-5-37.9-16.7-53.1c-16.5-21.4-43.3-30.3-69.3-33.1c-9.6-1-19.3-1.2-29-0.9
			c-3.2,0.1-3.2,5.1,0,5c29-0.8,62.1,2.4,85,22.2c14.6,12.6,22.4,30.6,24.4,49.6c1.4,13.4,0.4,27.1-2.5,40.2c-0.7,3.3-1.3,5.3-3.1,8
			c-8,11.9-15.2,24.3-22.1,36.8c-15.6,28-30,56.6-44.1,85.3c-4.1,8.4-8.2,16.9-12.3,25.3c-1.7,3.6-1.9,5.6-1.7,9.6
			c0.8,25.1,1.4,50.2,1.3,75.4c-0.1,8.7,0.5,18.2-1.3,26.8c-1.6,7.2-3.2,14.4-5.7,21.3c-11.6,31.2-40.4,48-71.6,54.9
			c-13.7,3-50.4,9.7-50.5-13.9c0-1.5,0-1.5,0.2-2.4c0.3-1.5-0.7-3.2-2.4-3.2c-28.8,0.6-57.5,1.3-86.3,1.9c-15.9,0.3-31.8,0.7-47.6,1
			c-15.6,0.3-30.5-4.7-44.1-12.3c-34.5-19.3-55.4-55.2-69-91.1c-1.5-3.9-2.9-7.9-4.5-11.7c-2.6-6.3-2.6-13.8-2.9-20.5
			c-0.7-15.3-0.3-30.7-0.1-46c0.3-19.9,0-39.8,0-59.7c0-39,0-78.1,0-117.1c0-28.4,0-56.8,0-85.1c0-10.1,0.7-20.8,11.9-24.9
			c3.4-1.2,7.1-1.7,10.7-1.7c1.3,0,4.3,0.2,4.6,0.3c15.6,1.5,31.5,2.5,47.2,2.1c23.8-0.5,46.1-9.4,69.8-11.2
			c9-0.7,18.2-0.5,26.5,3.2c9.5,4.2,17.3,11.7,24.6,18.9c11.4,11.2,21.6,23.9,34,34.1c10.4,8.5,22.2,15.1,34.6,20.1
			c19.5,7.8,40.7,11.6,61.7,12c3.4,0.1,6.9,0.1,10.3-0.1C594.7,336.6,594.7,331.6,591.5,331.8L591.5,331.8z"/>
	</g>
</g>
<g>
	<g>
		<path class="st7" d="M314.6,261.2c0,15.1,0,30.1,0,45.2c0,9.2,0,18.4,0,27.6c0,2.1,0.1,4.2,0,6.3c0,0.9,0.1-0.5,0-0.1
			c-0.1,0.6-0.3,1.2-0.3,1.8c-2,18.5,23.7,19.5,35.9,18.7c14.2-0.9,28.5-2.5,42.8-1.4c2.5,0.2,4.9,0.5,7.3,1
			c2.7,0.6,0.1,0.4,0.3-0.5c-0.4,1.5,3,6.9,3.5,8.2c2.3,5.8,4.4,11.7,6.1,17.7c3.6,12.6,7.6,28.9,1.4,41.3c-1.4,2.9,2.9,5.4,4.3,2.5
			c5.2-10.4,4.1-22.7,1.9-33.8c-2.2-11.1-5.8-21.8-10.2-32.2c-1.3-3-1.9-6.7-5.2-7.8c-5.7-2-12.6-1.7-18.5-1.7
			c-7.9,0-15.8,0.4-23.7,0.9c-8.5,0.6-17.1,1.7-25.6,0.5c-6.1-0.9-14.6-3.3-15.4-10.6c-0.2-2.3,0.4-3.8,0.4-6.5c0-7.7,0-15.5,0-23.2
			c0-18,0-35.9,0-53.9C319.6,258,314.6,258,314.6,261.2L314.6,261.2z"/>
	</g>
</g>
<g>
	<g>
		<path class="st7" d="M401.3,353.9c-0.3-7.6-0.6-15.3-0.7-23c-0.1-6-0.2-12-0.1-18c0-2.5-0.5-8.6,0.6-10.4c0.9-1.5,5-2.3,6.8-2.8
			c4.4-1.1,8.9-1.9,13.4-2.5c10.7-1.6,21.6-2.5,32.4-3.2c6.5-0.5,13.1-0.9,19.7-1.1c3.2-0.1,3.2-5.1,0-5c-17.4,0.7-34.8,1.9-52,4.3
			c-6.8,1-17.9,1.4-23.3,6.3c-2.2,2-2.1,4.9-2.3,7.7c-0.4,5.7-0.3,11.4-0.3,17.1c0.1,10.2,0.4,20.4,0.8,30.6
			C396.5,357.2,401.5,357.2,401.3,353.9L401.3,353.9z"/>
	</g>
</g>
<g>
	<g>
		<path class="st7" d="M452.3,436c0,37.9,0,75.9,0,113.8c0,60.1,0,120.2,0,180.3c0,13.9,0,27.8,0,41.7c0,3.2,5,3.2,5,0
			c0-37.9,0-75.9,0-113.8c0-60.1,0-120.2,0-180.3c0-13.9,0-27.8,0-41.7C457.3,432.7,452.3,432.7,452.3,436L452.3,436z"/>
	</g>
</g>
<g>
	<g>
		<path class="st7" d="M252.9,530.6c22.7,0,45.3,0,68,0c36.3,0,72.6,0,109,0c8.3,0,16.6,0,24.9,0c3.2,0,3.2-5,0-5
			c-22.7,0-45.3,0-68,0c-36.3,0-72.6,0-109,0c-8.3,0-16.6,0-24.9,0C249.7,525.6,249.7,530.6,252.9,530.6L252.9,530.6z"/>
	</g>
</g>
<g>
	<g>
		<path class="st7" d="M465.1,434.9c18.2,14.2,36.4,28.6,53.2,44.4c2.8,2.7,7.2,5.9,8.9,9.5c0.2,0.5,0-0.2,0.1,0.4
			c0.2,0.8,0.2,1.8,0.3,2.6c0.3,2.9,0.6,5.8,0.9,8.7c1.4,13.7,2.7,27.4,4.1,41.1c0.8,7.4,6.4,14.6,9.8,21
			c5.2,9.7,11.2,19.4,15.7,29.4c-0.3-0.6-0.2-1.7-0.3-0.6c-0.1,0.9,0,1.9,0,2.8c0,3.2,0,6.3,0,9.5c0,6.5,0,13,0,19.5
			c0,5.2,1.6,10,4.6,14.3c10.3,14.8,30.5,17.3,47,17.6c9.9,0.1,19.8,0.3,29.7,0.2c1.6,0,6.1,0.7,7.3-0.9c0.7-0.9,1-2,0.4-3
			c-0.6-1.2-1.9-1.3-3-1.4c-3.2-0.2-3.2,4.8,0,5c1.2,0.1-0.7-0.1-1.3-1.1c0.1-1,0.3-2,0.4-3c1-1.2,2.2-0.6,0-0.6c-1.7,0-3.4,0-5.1,0
			c-8.9,0-17.7-0.1-26.6-0.2c-15.3-0.2-35.3-1.5-44.9-15.6c-3.4-5-3.6-8.3-3.6-13.7c0-6.6,0-13.2,0-19.9c0-3.5,0.8-8-0.4-11.3
			c-1.1-3.2-3.4-6.4-5-9.4c-3.3-6.1-6.5-12.3-9.8-18.4c-2.8-5.2-5.6-10.5-8.4-15.7c-0.6-1.1-1.2-2.1-1.7-3.2c1,2,0.2,0,0-1.3
			c-1.4-13.4-2.7-26.8-4-40.1c-0.4-4.3-0.2-9.5-1.4-13.7c-0.8-3-3.7-5.6-5.8-7.7c-17.5-17.9-38-33.3-57.7-48.7
			C466.1,429.4,462.5,432.9,465.1,434.9L465.1,434.9z"/>
	</g>
</g>
<g>
	<g>
		<path class="st7" d="M505.6,663.7c0.6,21.2,1.2,42.3,1.8,63.5c0.1,3.2,5.1,3.2,5,0c-0.6-21.2-1.2-42.3-1.8-63.5
			C510.5,660.5,505.5,660.5,505.6,663.7L505.6,663.7z"/>
	</g>
</g>
<g>
	<g>
		<path class="st7" d="M669.3,513c23.3,11.7,46.6,23.4,70,35.1c-0.3-1.1-0.6-2.3-0.9-3.4c-8.7,17.5-17.5,34.9-26.2,52.4
			c1.1-0.3,2.3-0.6,3.4-0.9c-23.2-10.1-46.5-20.1-69.7-30.2c-2.9-1.3-5.5,3-2.5,4.3c23.2,10.1,46.5,20.1,69.7,30.2
			c1.2,0.5,2.8,0.4,3.4-0.9c8.7-17.5,17.5-34.9,26.2-52.4c0.6-1.1,0.4-2.8-0.9-3.4c-23.3-11.7-46.6-23.4-70-35.1
			C668.9,507.2,666.4,511.5,669.3,513L669.3,513z"/>
	</g>
</g>
<g>
	<g>
		<path class="st7" d="M247,564.5c-33.5,13.4-67.5,25.3-101.4,37.6c-1,0.3-1.9,1.3-1.8,2.4c0.8,8.9,0.7,17.7-0.1,26.6
			c-0.5,4.9-1.1,9.8-2.1,14.5c-0.8,3.9-2.3,6.5-4.6,9.6c-1.7,2.3-2.4,3-2,5.7c0.2,1.7,0.6,3.4,1,5c1,5,2.1,10,3.5,14.9
			c3.1,11.2,7.2,22.6,14,32.1c3.4,4.8,8.6,7.8,7.7,14.3c-0.9,6.1-4.1,11.9-7.5,16.9c-1.8,2.7,2.5,5.2,4.3,2.5
			c5.1-7.6,12.8-21.6,5.4-30c-8.9-9.9-14.2-20.8-18-33.6c-1.6-5.2-2.8-10.5-3.9-15.8c-0.4-2.1-1.2-4.3-1.3-6.5
			c0-0.5-0.5-1.4-0.3-1.8c0.9,0.2,1.4-0.3,1.6-1.3c0.5-0.7,1.1-1.5,1.6-2.2c4.4-6.5,4.7-14.9,5.5-22.5c1-9.5,1.2-19,0.3-28.5
			c-0.6,0.8-1.2,1.6-1.8,2.4c33.9-12.3,67.9-24.2,101.4-37.6C251.3,568.1,250,563.3,247,564.5L247,564.5z"/>
	</g>
</g>
<g>
	<g>
		<path class="st7" d="M142.7,645.6c1.8,4.2,7,8.1,10.1,11.4c7.5,7.8,15.1,15.4,22.7,23.1c17.2,17.4,34.6,34.6,51.3,52.5
			c3.1,3.3,6.1,6.6,9,10c0.9,1,1.8,2.1,2.6,3.2c0.6,0.8,0.9,2.1,0.8,0.9c0.3,3.2,5.3,3.2,5,0c-0.4-4.4-6.2-9.2-8.9-12.2
			c-7.3-8.1-14.9-15.9-22.5-23.7c-17.5-17.9-35.3-35.5-52.7-53.5c-3.1-3.2-6.1-6.3-9.1-9.6c-1.4-1.5-3.2-3.2-3.8-4.6
			C145.7,640.1,141.4,642.7,142.7,645.6L142.7,645.6z"/>
	</g>
</g>
<circle class="st8" cx="345.4" cy="231.9" r="10.8"/>
<circle class="st8" cx="480.9" cy="261.2" r="10.8"/>
<circle class="st8" cx="258.5" cy="674.5" r="10.8"/>
<circle class="st8" cx="435.7" cy="225.7" r="6.2"/>
<circle class="st8" cx="570.3" cy="568.8" r="6.2"/>
<circle class="st8" cx="579" cy="624.3" r="6.2"/>
<circle class="st9" cx="515.5" cy="649" r="6.2"/>
<circle class="st9" cx="329.8" cy="734.3" r="6.2"/>
<circle class="st10" cx="387.7" cy="288.2" r="10.8"/>
<circle class="st10" cx="435.7" cy="422.4" r="10.8"/>
<circle class="st10" cx="559.5" cy="494.4" r="10.8"/>
<circle class="st10" cx="406.4" cy="716.4" r="10.8"/>
<circle class="st11" cx="551.3" cy="353.9" r="10.8"/>
<circle class="st11" cx="449.7" cy="390.8" r="10.8"/>
<circle class="st11" cx="578.5" cy="518.4" r="10.8"/>
<circle class="st11" cx="473.4" cy="529.1" r="10.8"/>
<circle class="st11" cx="168.4" cy="434.7" r="10.8"/>
<circle class="st11" cx="168.4" cy="341.3" r="10.8"/>
<circle class="st11" cx="275.5" cy="343.2" r="10.8"/>
<circle class="st11" cx="280" cy="566.9" r="10.8"/>
<ellipse class="st11" cx="275.5" cy="235.1" rx="10.8" ry="10.8"/>
<circle class="st11" cx="406.4" cy="685.2" r="10.8"/>
<circle class="st8" cx="235.2" cy="629.4" r="6.2"/>
<g>
	<circle class="st12" cx="270" cy="510.3" r="4.5"/>
</g>
<circle class="st12" cx="391.3" cy="510.3" r="4.5"/>
<g>
	<circle class="st12" cx="268.4" cy="483.7" r="4.5"/>
</g>
<g>
	<circle class="st12" cx="268.4" cy="457" r="4.5"/>
</g>
<circle class="st12" cx="270" cy="401.6" r="4.5"/>
<circle class="st12" cx="332.3" cy="276.4" r="4.5"/>
<circle class="st12" cx="415" cy="336.9" r="4.5"/>
<circle class="st12" cx="479.7" cy="315.5" r="4.5"/>
<circle class="st12" cx="521.7" cy="434.9" r="4.5"/>
<circle class="st12" cx="553.2" cy="411.6" r="4.5"/>
<circle class="st12" cx="661.7" cy="433.2" r="4.5"/>
<circle class="st12" cx="391.3" cy="457" r="4.5"/>
<circle class="st12" cx="661.7" cy="390.8" r="4.5"/>
<circle class="st12" cx="491.7" cy="613.7" r="4.5"/>
<circle class="st12" cx="275.5" cy="198.8" r="4.5"/>
<circle class="st12" cx="666.1" cy="554.6" r="4.5"/>
<circle class="st12" cx="728.2" cy="510.8" r="4.5"/>
<circle class="st12" cx="661.7" cy="619.9" r="4.5"/>
<circle class="st12" cx="454.8" cy="788.5" r="4.5"/>
<g>
	<g>
		<path class="st7" d="M567.8,236.2c15.4,11.2,32.5,20.9,50.3,27.5c5.9,2.2,11.9,3.9,18.2,4.8c7.3,1.1,14.8,0.5,22.2,0.6
			c10,0.1,20.9,0,30.4,3.8c6.7,2.6,12.7,7.4,18.8,11.2c4.5,2.7,8.3,5.9,11.1,9.6c7.7,10,14.2,20,25,27.1
			c23.3,15.2,54.6,15.7,81.4,14.9c6.4-0.2,6.4-10.2,0-10c-24,0.7-51.6,0.6-73.2-11.7c-10.9-6.2-17-15.2-24.1-24.8
			c-3.3-4.4-6.8-8.4-11.4-11.5c-6.2-4.1-12.8-8.5-19.4-12c-7.6-3.9-15.8-5.4-24.3-6c-13.7-1.1-27.9,1.1-41.3-2.3
			c-21-5.3-41.2-17.2-58.6-29.8C567.6,223.8,562.6,232.4,567.8,236.2L567.8,236.2z"/>
	</g>
</g>
<g>
	<g>
		<path class="st7" d="M32.4,660.8c1.5,0,4.1,0.8,6.2,1.8c3.4,1.7,6.7,3.8,9.8,6c8.2,5.8,15.7,12.6,23,19.5
			c16.5,15.4,31.9,31.8,48,47.6c5.7,5.6,11.4,11.3,17.7,16.1c4.3,3.3,7.9,4.3,13.3,4.5c22.7,0.8,45.5-0.2,68.2-0.6
			c13.1-0.2,26.3-0.5,39.4-0.7c8.4-0.1,17.3-1.1,25.2,1.1c9.1,2.6,17.6,7.3,25.8,12c10.5,6,20.6,12.7,30.7,19.5
			c18.9,12.9,37.2,26.8,56.6,38.8c5.6,3.5,11.5,7,17.9,8.6c3.4,0.9,6.8,1.6,10.1,2.4c19.9,4.7,39.9,9.1,59.9,13.1
			c22.5,4.5,45.2,9,68.1,10.6c3.9,0.3,7.8,0.4,11.7,0.3c6.4-0.2,6.4-10.2,0-10c-20.3,0.8-41.2-3.7-61-7.4
			c-22.3-4.1-44.5-8.9-66.7-14c-9.3-2.2-19.7-3.7-27.6-7.9c-18.6-9.9-35.5-23.3-52.8-35.3c-18.8-13.1-38-26.9-59.1-36.1
			c-7.6-3.3-15.2-5.8-23.5-5.8c-11.6,0.1-23.2,0.3-34.8,0.5c-25.5,0.5-51.1,1.1-76.6,1.1c-3.9,0-7.9,0-11.8-0.2
			c-1.2,0-2.4,0-3.6-0.2c0.3,0-0.2-0.1-0.3-0.2c-5.1-2.7-9.4-7.3-13.9-11.6c-15.7-14.9-30.4-30.8-46-45.8
			c-7.8-7.6-15.8-15-24.3-21.9c-6.3-5.1-13-10.3-20.5-13.6c-2.9-1.3-5.9-2.2-9.1-2.2C25.9,650.8,25.9,660.8,32.4,660.8L32.4,660.8z"
			/>
	</g>
</g>
<g>
	<g>
		<path class="st7" d="M568.3,861.5c6.4,0,6.4-10,0-10C561.9,851.5,561.8,861.5,568.3,861.5L568.3,861.5z"/>
	</g>
</g>
<g>
	<g>
		<path class="st7" d="M783.1,812.9c-1.4,4.7-2.7,9.5-4.2,14.2c3.3,0.4,6.5,0.9,9.8,1.3c-0.2-6.2-5.4-10.6-10.2-13.7
			c-7.3-4.8-15.8-8.1-24-11.1c-23.8-8.7-48.7-14.4-73.5-19.2c-25.2-4.9-50.8-9-76.5-10.4c-8.9-0.5-17.8-0.8-26.7,0.3
			c-10.6,1.3-19,6.8-27.1,13.7c-18.6,15.9-31.5,40.9-34.1,65.3c-0.7,6.4,9.3,6.3,10,0c0.1-1.3-0.2,1.2,0-0.2
			c0.2-1.3,0.4-2.6,0.7-3.9c0.9-4.3,2-8.6,3.4-12.7c4.1-12.3,10.4-24.1,19.1-33.8c5.5-6.1,11.7-11.2,18.8-15.4
			c3.3-1.9,3.7-2.1,7.8-2.9c6.2-1.2,15.1-1.1,22.4-0.8c23.3,0.9,46.6,4.3,69.5,8.5c24.3,4.4,48.6,9.8,72.2,17.3
			c9.6,3,19.3,6.3,28.1,11.1c3,1.6,6,3.4,7.7,5c0.5,0.4,0.9,0.9,1.4,1.4c1,1-0.3-0.4,0.5,0.6c0.5,0.6,0.8,1.4,0.3,0.5
			c0.6,1.3,0.1-0.8,0.1,0.4c0.1,5.7,8.2,6.8,9.8,1.3c1.4-4.7,2.8-9.5,4.2-14.2C794.6,809.4,784.9,806.7,783.1,812.9L783.1,812.9z"/>
	</g>
</g>
<g>
	<g>
		<path class="st7" d="M671.4,786.5c8.7-38.4,21.2-76.6,37-112.7c11.4-25.9,24.8-52.4,44.2-73.2c7.8-8.3,16.8-16,27.4-20.4
			c4.7-1.9,9.7-3.2,14.8-3.5c3.9-0.2,7.7,0,11.6-0.5c0.4-0.1,0.8-0.2,1.2-0.2c-1.8,0.3-0.2,0,0.9,0c1,0,1.9,0,2.9,0
			c0.9,0,2,0.3,0.5,0c0.6,0.1,1.2,0.2,1.8,0.3c0.6,0.2,1.3,0.3,1.9,0.5c0.7,0.2,2.6,1.1,0.9,0.3c1.4,0.7,2.7,1.4,4.1,2.3
			c1.1,0.8-0.1-0.1,0.2,0.1c0.3,0.2,0.6,0.5,0.9,0.7c0.7,0.7,1.4,1.4,2.1,2.1c0.3,0.3,0.6,0.7,0.8,1c0.9,1-0.6-0.8,0.2,0.3
			c0.7,0.9,1.3,1.9,1.9,2.9c2.6,4.4,3.8,8.4,5.1,14.4c1.5,7.2,1.8,15,1.6,23.1c-0.6,27.5-6.9,54.8-14,81.2
			c-5.6,20.8-12.2,41.3-19.2,61.6c-7,20-13.7,40.6-22.4,60c-9.7,21.6-20.1,42.9-30.1,64.3c-1,2.1-2,4.3-3,6.4
			c-2.7,5.8,5.9,10.9,8.6,5c9.6-20.5,19.2-41,28.8-61.5c6.2-13.2,11.4-26.7,16.5-40.4c8.5-22.8,16.5-45.7,23.6-69
			c9.4-30.9,17.8-62.7,20.5-95c1.4-16,1.7-33.6-4.3-48.8c-5.7-14.4-17.7-23.6-33.3-21.7c-3.7,0.4-7.2,0.1-11,0.4
			c-11.8,0.9-22.9,5.6-32.5,12.5c-22.8,16.4-38.4,41.8-51,66.4c-21.8,42.6-37.3,89.1-48.4,135.7c-0.2,0.9-0.4,1.7-0.6,2.6
			C660.4,790.1,670,792.8,671.4,786.5L671.4,786.5z"/>
	</g>
</g>
<rect x="454.8" y="370.6" class="st2" width="179.6" height="30.9"/>
<text transform="matrix(1 0 0 1 454.8174 381.0889)"><tspan x="0" y="0" class="st3 st5">資訊技術服務中心</tspan><tspan x="0" y="15.8" class="st3 st5">（計中）</tspan></text>
<rect x="561.4" y="340.5" class="st2" width="61.3" height="21.3"/>
<text transform="matrix(1 0 0 1 561.4102 350.9385)" class="st3 st5">中正堂</text>
<rect x="667.7" y="380.1" class="st2" width="75.1" height="19.2"/>
<text transform="matrix(1 0 0 1 667.7129 389.3936)" class="st3 st4">管理一館</text>
<rect x="587.7" y="505.8" class="st2" width="82" height="29"/>
<text transform="matrix(1 0 0 1 587.6934 515.1562)" class="st3 st4">學生活動中心</text>
<rect x="735.2" y="503.7" class="st2" width="110.3" height="12.7"/>
<text transform="matrix(1 0 0 1 735.2324 513.0137)" class="st3 st4">電子資訊研究大樓</text>
<rect x="675.4" y="547.4" class="st2" width="72.9" height="14.3"/>
<text transform="matrix(1 0 0 1 675.4375 556.7695)" class="st3 st4">固態電子系統</text>
<rect x="579" y="561.2" class="st2" width="82.5" height="19.6"/>
<text transform="matrix(1 0 0 1 578.9521 570.4805)" class="st3 st4">七舍</text>
<rect x="589.3" y="617.1" class="st2" width="44.4" height="33.3"/>
<text transform="matrix(1 0 0 1 589.2734 626.4414)" class="st3 st4">八舍</text>
<rect x="524.4" y="638.5" class="st2" width="129.7" height="33.4"/>
<text transform="matrix(1 0 0 1 524.4209 647.7939)"><tspan x="0" y="0" class="st3 st4">女二舍</tspan><tspan x="0" y="14.1" class="st3 st4">女二餐廳／全家／麥當勞</tspan></text>
<rect x="669.9" y="616.2" class="st2" width="95.7" height="27.5"/>
<text transform="matrix(1 0 0 1 669.9072 625.5488)" class="st3 st4">奈米電子研究大樓</text>
<rect x="501.5" y="608.7" class="st2" width="66.1" height="31.2"/>
<text transform="matrix(1 0 0 1 501.459 618.0508)" class="st3 st4">管理二館</text>
<rect x="467.5" y="500.3" class="st2" width="92.6" height="39.6"/>
<text transform="matrix(1 0 0 1 467.498 514.252)" class="st3 st6">浩然圖書館</text>
<rect x="302.9" y="562.6" class="st2" width="89.9" height="62.9"/>
<text transform="matrix(1 0 0 1 302.9219 576.6123)" class="st3 st6">壘球場</text>
<rect x="253.6" y="619.1" class="st2" width="55.5" height="20.6"/>
<text transform="matrix(1 0 0 1 253.5762 633.0664)" class="st3 st6">研二舍</text>
<rect x="275.5" y="666.5" class="st2" width="52.9" height="23.8"/>
<text transform="matrix(1 0 0 1 275.4619 680.4961)" class="st3 st6">十二舍</text>
<rect x="422" y="671.7" class="st2" width="81.4" height="23.8"/>
<text transform="matrix(1 0 0 1 421.9531 685.6309)" class="st3 st6">綜合一館</text>
<rect x="423.8" y="709.3" class="st2" width="51.8" height="14.3"/>
<text transform="matrix(1 0 0 1 423.8213 718.584)" class="st3 st4">奶廚</text>
<rect x="343.3" y="727.2" class="st2" width="130" height="22.7"/>
<text transform="matrix(1 0 0 1 343.2852 737.6553)" class="st3 st5">十三宿舍／全家</text>
<rect x="470" y="783" class="st2" width="62.9" height="11.1"/>
<text transform="matrix(1 0 0 1 470.0078 792.2988)" class="st3 st4">服務大樓</text>
<rect x="242" y="745.5" class="st2" width="45.5" height="17.4"/>
<text transform="matrix(1 0 0 1 242.002 754.7988)" class="st3 st4">新安路</text>
<rect x="131.1" y="745.5" class="st2" width="74.5" height="44.4"/>
<text transform="matrix(1 0 0 1 131.1338 759.459)" class="st3 st6">南大門</text>
<rect x="276.3" y="451.5" class="st2" width="124.3" height="17.9"/>
<text transform="matrix(1 0 0 1 276.2539 460.7832)" class="st3 st4">田家炳光電大樓</text>
<rect x="280" y="479.2" class="st2" width="49.9" height="28.7"/>
<text transform="matrix(1 0 0 1 280.0205 488.5156)" class="st3 st4">交映樓</text>
<rect x="279.2" y="501.6" class="st2" width="83.1" height="19"/>
<text transform="matrix(1 0 0 1 279.2349 510.8936)" class="st3 st4">工程六館</text>
<rect x="400.6" y="506.4" class="st2" width="62.1" height="16.7"/>
<text transform="matrix(1 0 0 1 400.6016 515.749)" class="st3 st4">工程五館</text>
<rect x="398" y="451.3" class="st2" width="84.5" height="18.3"/>
<text transform="matrix(1 0 0 1 398.0059 460.5859)" class="st3 st4">工程三館</text>
<rect x="451.5" y="412.2" class="st2" width="64.3" height="15.5"/>
<text transform="matrix(1 0 0 1 451.5342 421.5215)" class="st3 st4">小木屋鬆餅</text>
<rect x="337.6" y="266.5" class="st2" width="53.7" height="22.7"/>
<text transform="matrix(1 0 0 1 337.5967 275.8511)" class="st3 st4">科學二館</text>
<rect x="276.3" y="214.2" class="st2" width="59.9" height="20.1"/>
<text transform="matrix(1 0 0 1 276.2539 228.2285)" class="st3 st6">游泳館</text>
<rect x="604" y="236.8" class="st2" width="76.6" height="27.2"/>
<text transform="matrix(1 0 0 1 604.0469 251.9336)" class="st3 st13">北大門</text>
<rect x="710.5" y="251.5" transform="matrix(0.6939 -0.7201 0.7201 0.6939 13.7789 607.3197)" class="st2" width="21.5" height="71.9"/>
<text transform="matrix(1 0 0 1 696.0596 278.1475)"><tspan x="0" y="0" class="st3 st4">大</tspan><tspan x="14.6" y="14.1" class="st3 st4">學</tspan><tspan x="29.2" y="28.1" class="st3 st4">路</tspan></text>
<rect x="663.9" y="748.1" transform="matrix(0.2385 -0.9711 0.9711 0.2385 -249.491 1254.9563)" class="st2" width="23.2" height="76.9"/>
<text transform="matrix(1 0 0 1 638.6133 789.4844)" class="st3 st4">展業二路</text>
<rect x="785.3" y="709.1" transform="matrix(0.2376 -0.9714 0.9714 0.2376 -69.3879 1349.4829)" class="st2" width="79.4" height="19.6"/>
<text transform="matrix(1 0 0 1 821.21 701.4326)"><tspan x="0" y="0" class="st3 st4">展</tspan><tspan x="-3.4" y="14.1" class="st3 st4">業</tspan><tspan x="-6.9" y="28.1" class="st3 st4">一</tspan><tspan x="-10.3" y="42.2" class="st3 st4">路</tspan></text>
</svg>
