<?xml version="1.0" encoding="utf-8"?>
<!-- Generator: Adobe Illustrator 16.0.4, SVG Export Plug-In . SVG Version: 6.00 Build 0)  -->
<!DOCTYPE svg PUBLIC "-//W3C//DTD SVG 1.1//EN" "http://www.w3.org/Graphics/SVG/1.1/DTD/svg11.dtd">
<svg version="1.1" id="Capa_1" xmlns="http://www.w3.org/2000/svg" xmlns:xlink="http://www.w3.org/1999/xlink" x="0px" y="0px"
	 width="23.303px" height="18.93px" viewBox="0 0 23.303 18.93" enable-background="new 0 0 23.303 18.93" xml:space="preserve">
<g>
	<path d="M21.624,2.3c-0.931,0-1.685,0.821-1.685,1.831c0,0.657,0.318,1.229,0.797,1.554c-1.012,1.519-2.44,3.283-3.912,3.794
		c-1.937,0.673-3.743-3.463-4.632-5.921c0.659-0.248,1.139-0.925,1.139-1.728c0-1.01-0.753-1.83-1.681-1.83
		C10.724,0,9.97,0.82,9.97,1.83c0,0.803,0.479,1.479,1.139,1.728c-0.887,2.458-2.691,6.594-4.631,5.921
		c-1.47-0.511-2.901-2.275-3.911-3.794c0.477-0.325,0.796-0.896,0.796-1.554c0-1.01-0.755-1.831-1.683-1.831
		C0.754,2.3,0,3.121,0,4.131c0,1.013,0.754,1.833,1.68,1.833c0.019,0,0.032-0.005,0.05-0.007L4,16.502h15.303l2.271-10.545
		c0.016,0.001,0.032,0.007,0.051,0.007c0.925,0,1.679-0.82,1.679-1.833C23.303,3.121,22.549,2.3,21.624,2.3z"/>
	<rect x="4.077" y="16.873" width="15.148" height="2.057"/>
</g>
</svg>
